<?xml version="1.0" standalone="no"?>
<!DOCTYPE svg PUBLIC "-//W3C//DTD SVG 20010904//EN"
 "http://www.w3.org/TR/2001/REC-SVG-20010904/DTD/svg10.dtd">
<svg version="1.0" xmlns="http://www.w3.org/2000/svg"
 width="512.000000pt" height="512.000000pt" viewBox="0 0 512.000000 512.000000"
 preserveAspectRatio="xMidYMid meet">
<metadata>
Created by potrace 1.14, written by Peter Selinger 2001-2017
</metadata>
<g transform="translate(0.000000,512.000000) scale(0.100000,-0.100000)"
fill="#000000" stroke="none">
<path d="M355 5026 c-119 -38 -209 -121 -251 -231 -20 -53 -25 -162 -11 -245
25 -145 79 -459 82 -480 21 -127 26 -160 34 -190 20 -86 89 -179 164 -223 79
-46 138 -57 312 -57 l161 0 134 -135 c74 -75 149 -144 165 -155 67 -42 165
-34 226 17 49 42 69 95 69 191 l0 82 86 0 86 0 -6 -57 c-3 -32 -6 -119 -7
-192 -2 -208 -29 -285 -153 -434 -124 -148 -168 -265 -162 -431 6 -157 68
-293 183 -403 l55 -53 -60 -57 c-149 -145 -265 -354 -315 -567 -30 -133 -30
-375 1 -460 79 -216 266 -364 480 -381 36 -3 68 -8 72 -10 4 -2 7 -18 8 -35 1
-54 34 -194 54 -234 33 -64 106 -134 177 -169 l66 -32 515 -3 c632 -4 640 -3
758 103 67 60 106 141 122 255 17 123 16 120 58 120 156 2 337 98 436 233 37
50 81 150 94 212 10 48 9 267 -2 331 -38 230 -154 456 -320 627 l-67 69 54 51
c118 113 179 248 183 411 1 60 -3 115 -11 142 -7 24 -11 44 -10 44 2 0 -6 21
-17 48 -28 64 -83 148 -124 191 -51 53 -98 128 -123 196 -23 61 -26 88 -35
353 l-5 132 84 0 85 0 0 -80 c0 -44 -1 -81 -1 -82 -1 -2 8 -22 19 -44 40 -79
115 -121 199 -110 62 7 78 19 235 175 l138 136 182 5 c212 7 259 19 344 94 91
80 117 150 160 441 3 17 9 55 15 85 5 30 11 69 14 85 3 17 8 41 10 55 3 14 7
43 11 65 6 42 7 53 25 152 33 188 -45 347 -211 427 l-65 31 -670 0 c-751 0
-719 3 -815 -74 -64 -51 -77 -68 -113 -141 -27 -56 -31 -76 -32 -145 0 -44 3
-96 7 -115 3 -19 11 -64 17 -100 6 -36 13 -76 16 -90 2 -13 7 -40 10 -60 3
-19 9 -60 14 -90 5 -30 8 -56 7 -57 -1 -1 -27 17 -57 40 -123 94 -268 157
-429 185 -30 6 -108 9 -175 8 -219 -5 -392 -69 -583 -214 l-35 -26 7 29 c11
51 16 78 22 125 3 25 8 54 10 65 8 39 35 211 41 252 8 69 -14 169 -51 227 -48
74 -92 114 -166 150 l-65 31 -660 2 c-511 1 -669 -1 -700 -11z"/>
<path d="M80 3040 l0 -80 560 0 560 0 0 80 0 80 -560 0 -560 0 0 -80z"/>
<path d="M80 2720 l0 -80 560 0 560 0 0 80 0 80 -560 0 -560 0 0 -80z"/>
<path d="M240 2400 l0 -80 80 0 80 0 0 80 0 80 -80 0 -80 0 0 -80z"/>
<path d="M560 2400 l0 -80 80 0 80 0 0 80 0 80 -80 0 -80 0 0 -80z"/>
<path d="M880 2400 l0 -80 80 0 80 0 0 80 0 80 -80 0 -80 0 0 -80z"/>
<path d="M3920 2160 l0 -80 560 0 560 0 0 80 0 80 -560 0 -560 0 0 -80z"/>
<path d="M3920 1840 l0 -80 560 0 560 0 0 80 0 80 -560 0 -560 0 0 -80z"/>
<path d="M4080 1520 l0 -80 80 0 80 0 0 80 0 80 -80 0 -80 0 0 -80z"/>
<path d="M4400 1520 l0 -80 80 0 80 0 0 80 0 80 -80 0 -80 0 0 -80z"/>
<path d="M4720 1520 l0 -80 80 0 80 0 0 80 0 80 -80 0 -80 0 0 -80z"/>
</g>
</svg>
